<svg width="64" height="26" viewBox="0 0 64 26" fill="none" xmlns="http://www.w3.org/2000/svg">
<path fill-rule="evenodd" clip-rule="evenodd" d="M43.5391 15.298C43.9499 15.298 44.2833 14.9604 44.2833 14.5444V11.0039C44.2833 10.5879 43.9499 10.2502 43.5391 10.2502C43.1283 10.2502 42.7949 10.5879 42.7949 11.0039V14.5444C42.7949 14.9604 43.1283 15.298 43.5391 15.298Z" fill="#47505A"/>
<path fill-rule="evenodd" clip-rule="evenodd" d="M29.4238 11.0041V14.5446C29.4238 14.9606 29.7572 15.2983 30.168 15.2983C30.5788 15.2983 30.9122 14.9606 30.9122 14.5446V11.0041C30.9122 10.5881 30.5788 10.2505 30.168 10.2505C29.7572 10.2505 29.4238 10.5881 29.4238 11.0041Z" fill="#47505A"/>
<path fill-rule="evenodd" clip-rule="evenodd" d="M16.3384 11.0596C15.9276 11.0596 15.5942 11.3972 15.5942 11.8132V13.3898C15.5942 13.8061 15.9276 14.1434 16.3384 14.1434C16.7492 14.1434 17.0826 13.8061 17.0826 13.3898V11.8132C17.0826 11.3972 16.7492 11.0596 16.3384 11.0596Z" fill="#47505A"/>
<path fill-rule="evenodd" clip-rule="evenodd" d="M61.0323 19.0774L59.8353 19.2319C59.4275 16.3685 56.9948 14.1588 54.056 14.1588C50.8322 14.1588 48.2097 16.8146 48.2097 20.0793C48.2097 20.1807 48.2193 20.2798 48.2245 20.3804H17.1243C17.1295 20.2798 17.1391 20.1807 17.1391 20.0793C17.1391 16.8146 14.5166 14.1588 11.2932 14.1588C8.51774 14.1588 6.19253 16.1292 5.5983 18.7601L3.45988 18.3799C2.46453 18.2028 1.70584 17.373 1.61505 16.3617C1.55812 15.7271 1.50714 14.9249 1.493 14.0224H4.12742V12.2537L6.41988 9.34017H2.03849C2.28258 8.84165 2.62119 8.39362 3.045 8.02435L7.22844 4.38133C7.81412 3.8715 8.52816 3.54481 9.29319 3.43591C13.0364 2.90385 25.8673 1.19652 33.8201 1.55675C35.0476 1.61252 36.2305 2.02663 37.2411 2.75426L46.4731 9.40008L46.69 9.41101C49.5209 9.55495 57.2333 10.0629 58.9025 10.6805C59.3423 10.8429 59.7605 11.1003 60.1456 11.3964H55.9064L59.1477 15.2836H62.085L61.9399 18.0871C61.9135 18.5965 61.5321 19.0129 61.0323 19.0774ZM49.6982 20.0793C49.6982 17.6458 51.6531 15.6661 54.0561 15.6661C56.4591 15.6661 58.4141 17.6458 58.4141 20.0793C58.4141 22.5127 56.4591 24.4925 54.0561 24.4925C51.6531 24.4925 49.6982 22.5127 49.6982 20.0793ZM6.93525 20.0793C6.93525 17.6458 8.89023 15.6661 11.2932 15.6661C13.6958 15.6661 15.6508 17.6458 15.6508 20.0793C15.6508 22.5127 13.6958 24.4925 11.2932 24.4925C8.89023 24.4925 6.93525 22.5127 6.93525 20.0793ZM3.33109 10.8474L2.63899 11.7269V12.5152H1.50709C1.52569 11.9763 1.55992 11.4179 1.61574 10.8474H3.33109ZM62.1628 13.7764H59.8383L59.1109 12.9037H61.2727C61.3892 12.9037 61.4975 12.8747 61.5957 12.8264C61.855 13.1407 62.0541 13.4146 62.1724 13.5857L62.1628 13.7764ZM63.5579 12.97C63.4858 12.8547 61.7652 10.1349 59.4132 9.26481C57.3373 8.49649 48.7408 8.00965 46.9812 7.91695L38.1034 1.52585C36.8584 0.629794 35.4006 0.119968 33.8869 0.0510118C25.8024 -0.316756 12.8606 1.4064 9.08613 1.94336C8.03795 2.0922 7.06009 2.54023 6.25823 3.23846L2.07479 6.88148C0.971902 7.84197 0.28353 9.18568 0.137297 10.6647C-0.0919121 12.976 0.00818094 15.1129 0.13246 16.4981C0.283902 18.1858 1.54679 19.5702 3.2026 19.8641L5.45637 20.2647C5.55386 23.4431 8.13097 25.9998 11.293 25.9998C13.8936 25.9998 16.1008 24.2698 16.8577 21.8876H48.4908C49.2476 24.2698 51.4549 25.9998 54.0558 25.9998C57.056 25.9998 59.5326 23.6986 59.8619 20.7481L61.2205 20.5725C62.4346 20.4158 63.3622 19.4037 63.4262 18.1659L63.6845 13.1727L63.5579 12.97Z" fill="#47505A"/>
<path fill-rule="evenodd" clip-rule="evenodd" d="M34.7032 3.95769L38.7773 7.48276H31.2707L30.6589 3.95769H34.7032ZM29.9131 8.36676C29.9756 8.72737 30.2848 8.99 30.6461 8.99H40.7938C41.1056 8.99 41.384 8.79331 41.4919 8.49713C41.5998 8.20134 41.5142 7.86824 41.2772 7.66325L35.461 2.63093C35.3267 2.5145 35.1551 2.45044 34.9776 2.45044H29.7721C29.5521 2.45044 29.3438 2.54879 29.202 2.71948C29.0606 2.89018 29.0011 3.11513 29.039 3.33444L29.9131 8.36676Z" fill="#47505A"/>
<path fill-rule="evenodd" clip-rule="evenodd" d="M14.6238 7.85051H10.2004L11.6579 5.42686L15.6724 4.87182L14.6238 7.85051ZM15.8498 8.85736L17.4855 4.21051C17.573 3.96257 17.5265 3.68675 17.3624 3.48251C17.1987 3.27828 16.9415 3.17428 16.684 3.21083L11.1064 3.98217C10.8842 4.01269 10.6881 4.14307 10.5713 4.33675L8.24051 8.21188C8.10061 8.44475 8.0954 8.73565 8.22712 8.97304C8.35884 9.2108 8.60703 9.35776 8.87605 9.35776H15.1488C15.4636 9.35776 15.7441 9.1573 15.8498 8.85736Z" fill="#47505A"/>
<path fill-rule="evenodd" clip-rule="evenodd" d="M18.8517 7.60338L19.9575 4.58399L26.8513 4.25428L27.3123 7.60338H18.8517ZM28.7292 8.85176C28.8706 8.68709 28.9346 8.46892 28.9048 8.25301L28.2313 3.36463C28.1785 2.97915 27.8455 2.69089 27.4592 2.71614L19.3956 3.10199C19.0976 3.11594 18.8367 3.30924 18.7333 3.5926L17.0842 8.09512C16.9993 8.32611 17.0317 8.5846 17.1709 8.78733C17.31 8.99005 17.5385 9.11063 17.7818 9.11063H28.1677C28.3831 9.11063 28.5878 9.01643 28.7292 8.85176Z" fill="#47505A"/>
<path fill-rule="evenodd" clip-rule="evenodd" d="M45.8696 17.8538H19.6802C19.2694 17.8538 18.936 18.1914 18.936 18.6074C18.936 19.0234 19.2694 19.361 19.6802 19.361H45.8696C46.2804 19.361 46.6138 19.0234 46.6138 18.6074C46.6138 18.1914 46.2804 17.8538 45.8696 17.8538Z" fill="#47505A"/>
</svg>
