<svg width="64" height="28" viewBox="0 0 64 28" fill="none" xmlns="http://www.w3.org/2000/svg">
<path fill-rule="evenodd" clip-rule="evenodd" d="M47.5096 12.0637C47.0596 12.0637 46.6943 12.4273 46.6943 12.8753V13.9831C46.6943 14.4315 47.0596 14.7947 47.5096 14.7947C47.9597 14.7947 48.3249 14.4315 48.3249 13.9831V12.8753C48.3249 12.4273 47.9597 12.0637 47.5096 12.0637Z" fill="#47505A"/>
<path fill-rule="evenodd" clip-rule="evenodd" d="M31.3968 17.2679C31.8469 17.2679 32.2121 16.9043 32.2121 16.4563V11.9036C32.2121 11.4556 31.8469 11.092 31.3968 11.092C30.9468 11.092 30.5815 11.4556 30.5815 11.9036V16.4563C30.5815 16.9043 30.9468 17.2679 31.3968 17.2679Z" fill="#47505A"/>
<path fill-rule="evenodd" clip-rule="evenodd" d="M16.1903 11.1868C15.7402 11.1868 15.375 11.5504 15.375 11.9984V14.4547C15.375 14.9027 15.7402 15.2662 16.1903 15.2662C16.6403 15.2662 17.0056 14.9027 17.0056 14.4547V11.9984C17.0056 11.5504 16.6403 11.1868 16.1903 11.1868Z" fill="#47505A"/>
<path fill-rule="evenodd" clip-rule="evenodd" d="M61.8495 21.1899H55.2885C55.156 17.8863 52.4228 15.238 49.0727 15.238C45.6379 15.238 42.844 18.0198 42.844 21.4386C42.844 21.536 42.8537 21.6306 42.8586 21.7267H18.0662C18.0702 21.6306 18.0808 21.536 18.0808 21.4386C18.0808 18.0198 15.2864 15.238 11.8521 15.238C8.80573 15.238 6.26775 17.4273 5.7321 20.3073L2.42775 19.4405L2.33317 19.4218C1.93083 19.3654 1.62224 19.0205 1.6304 18.6362C1.66668 17.0126 1.75921 15.5355 1.88721 14.1935L2.66866 13.8681C3.56507 13.4951 4.19121 12.7022 4.34408 11.7474L4.56054 10.3932C4.67712 9.66077 4.48961 8.89949 4.04487 8.30459L3.13827 7.09086C3.64252 5.27856 4.13577 4.17683 4.37506 3.6988C14.2975 1.42025 24.3928 1.02257 35.2263 2.48222C41.5746 3.33764 45.057 5.80083 47.8547 7.7803C49.9255 9.24483 51.7139 10.5101 54.0493 10.7621C56.3443 11.0092 57.9969 11.4292 59.1937 11.9125H58.3315C57.8028 11.9125 57.3361 12.2088 57.1135 12.6864C56.8909 13.164 56.9643 13.7102 57.3055 14.1124L58.5884 15.6244C58.8444 15.9255 59.2182 16.0983 59.6144 16.0983H62.2678V20.7735C62.2678 21.0032 62.0802 21.1899 61.8495 21.1899ZM49.0726 26.0164C46.5371 26.0164 44.4744 23.9627 44.4744 21.4386C44.4744 18.915 46.5371 16.8612 49.0726 16.8612C51.6082 16.8612 53.6709 18.915 53.6709 21.4386C53.6709 23.9627 51.6082 26.0164 49.0726 26.0164ZM11.8517 26.0164C9.31619 26.0164 7.25311 23.9627 7.25311 21.4386C7.25311 18.915 9.31619 16.8612 11.8517 16.8612C14.3869 16.8612 16.45 18.915 16.45 21.4386C16.45 23.9627 14.3869 26.0164 11.8517 26.0164ZM2.7363 9.27323C2.92056 9.51955 2.99842 9.83526 2.94991 10.1384L2.73304 11.4925C2.67475 11.8594 2.43139 12.1739 2.09834 12.337C2.2561 11.1448 2.44198 10.0812 2.63969 9.14297L2.7363 9.27323ZM61.6641 13.5357C61.7187 13.6007 61.7693 13.6648 61.8149 13.7277C62.011 13.9979 62.126 14.2499 62.1985 14.4751H59.7478L58.9508 13.5357H61.6641ZM63.939 15.2867C63.939 15.2742 63.9358 15.2628 63.9354 15.2502C63.959 14.7207 63.8681 13.8279 63.1922 12.856C61.8258 10.8899 58.8089 9.64251 54.2253 9.14825C52.3122 8.9417 50.762 7.84523 48.7992 6.457C45.8556 4.37445 42.1913 1.78303 35.4456 0.874044C24.2802 -0.630246 13.878 -0.196043 3.64412 2.20181L3.31433 2.27932L3.1366 2.56622C3.0192 2.75613 0.252932 7.34975 0.000601012 18.5997C-0.0263034 19.796 0.852983 20.8279 2.05431 21.0211L5.64972 21.9641C5.91917 25.1379 8.59494 27.6396 11.852 27.6396C14.6167 27.6396 16.963 25.8358 17.7747 23.3499H43.1501C43.9617 25.8358 46.3085 27.6396 49.0727 27.6396C52.0322 27.6396 54.5115 25.5721 55.1421 22.8131H61.8495C62.979 22.8131 63.8983 21.898 63.8983 20.7735V15.6142C63.906 15.5716 63.9134 15.5172 63.9203 15.4572C63.9321 15.402 63.939 15.3456 63.939 15.2867Z" fill="#47505A"/>
<path fill-rule="evenodd" clip-rule="evenodd" d="M15.1422 7.9911L10.0133 7.64739L8.82907 6.88733L9.26036 5.42768L15.7721 4.76379L15.1422 7.9911ZM16.6983 3.03753L8.54955 3.86861C8.22058 3.90188 7.9442 4.13035 7.85044 4.44687L7.09222 7.0115C6.99031 7.35684 7.12891 7.72774 7.43261 7.92252L9.30654 9.1253C9.42272 9.19997 9.55561 9.24379 9.6934 9.25272L15.7502 9.65852C15.7689 9.66014 15.7873 9.66055 15.8056 9.66055C16.1929 9.66055 16.5304 9.38704 16.6054 9.00397L17.5817 4.00008C17.631 3.74768 17.5577 3.48716 17.3836 3.29765C17.2095 3.10855 16.958 3.01278 16.6983 3.03753Z" fill="#47505A"/>
<path fill-rule="evenodd" clip-rule="evenodd" d="M28.3489 8.3029L19.9254 7.96609L20.5927 4.70105L28.6815 4.69293L28.3489 8.3029ZM29.0902 9.95612C29.5096 9.95612 29.8631 9.63797 29.9018 9.21878L30.3869 3.95478C30.4081 3.72794 30.3319 3.50192 30.1769 3.33351C30.0225 3.1651 29.804 3.06934 29.5753 3.06934H29.5745L19.9251 3.07867C19.5379 3.07908 19.204 3.35055 19.127 3.72876L18.136 8.57722C18.0883 8.81015 18.1462 9.05241 18.2933 9.23988C18.4409 9.42696 18.6635 9.54017 18.9024 9.54951L29.0572 9.9553C29.0686 9.95571 29.0796 9.95612 29.0902 9.95612Z" fill="#47505A"/>
<path fill-rule="evenodd" clip-rule="evenodd" d="M33.0223 8.47139L33.2999 5.04078C34.6231 5.13817 36.2211 5.34107 37.0404 5.57238C41.207 6.75 43.6936 8.24009 45.0694 9.31464L33.0223 8.47139ZM47.2106 11.0896C47.4976 11.0896 47.7654 10.939 47.9126 10.6903C48.0695 10.4253 48.0626 10.0946 47.8942 9.83649C47.8005 9.69243 45.5001 6.27603 37.4855 4.01128C36.3665 3.69475 34.1159 3.43829 32.5864 3.37255C32.1396 3.35429 31.774 3.68339 31.7389 4.118L31.3313 9.15841C31.3137 9.3747 31.3834 9.58855 31.5253 9.75249C31.6676 9.91725 31.8694 10.0183 32.0862 10.0333L47.1531 11.0876C47.1727 11.0888 47.1919 11.0896 47.2106 11.0896Z" fill="#47505A"/>
<path fill-rule="evenodd" clip-rule="evenodd" d="M41.1276 19.199H19.9408C19.4907 19.199 19.1255 19.5626 19.1255 20.0106C19.1255 20.4586 19.4907 20.8222 19.9408 20.8222H41.1276C41.5777 20.8222 41.9429 20.4586 41.9429 20.0106C41.9429 19.5626 41.5777 19.199 41.1276 19.199Z" fill="#47505A"/>
</svg>
