<svg width="64" height="29" viewBox="0 0 64 29" fill="none" xmlns="http://www.w3.org/2000/svg">
<path fill-rule="evenodd" clip-rule="evenodd" d="M49.0726 12.5103C48.6077 12.5103 48.2305 12.8842 48.2305 13.345V14.4839C48.2305 14.9451 48.6077 15.3186 49.0726 15.3186C49.5374 15.3186 49.9147 14.9451 49.9147 14.4839V13.345C49.9147 12.8842 49.5374 12.5103 49.0726 12.5103Z" fill="#47505A"/>
<path fill-rule="evenodd" clip-rule="evenodd" d="M31.5874 12.3457V17.028C31.5874 17.4887 31.9647 17.8627 32.4295 17.8627C32.8944 17.8627 33.2716 17.4887 33.2716 17.028V12.3457C33.2716 11.8849 32.8944 11.511 32.4295 11.511C31.9647 11.511 31.5874 11.8849 31.5874 12.3457Z" fill="#47505A"/>
<path fill-rule="evenodd" clip-rule="evenodd" d="M16.723 11.6084C16.2581 11.6084 15.8809 11.9823 15.8809 12.4431V14.9689C15.8809 15.4297 16.2581 15.8036 16.723 15.8036C17.1878 15.8036 17.5651 15.4297 17.5651 14.9689V12.4431C17.5651 11.9823 17.1878 11.6084 16.723 11.6084Z" fill="#47505A"/>
<path fill-rule="evenodd" clip-rule="evenodd" d="M61.6073 20.8496C61.02 21.4952 60.1379 21.8963 59.3042 21.8963H57.1075C56.9707 18.4991 54.1475 15.775 50.6869 15.775C47.1395 15.775 44.2532 18.6355 44.2532 22.1517C44.2532 22.2519 44.2637 22.3496 44.2684 22.4485H18.6604C18.665 22.3496 18.6755 22.2519 18.6755 22.1517C18.6755 18.6355 15.7896 15.775 12.2418 15.775C9.09575 15.775 6.47511 18.0266 5.92059 20.9881L2.50796 20.0971L2.40985 20.0775C1.99427 20.0199 1.67553 19.6647 1.68438 19.2699C1.69953 18.6084 1.71132 17.9953 1.72269 17.4248C1.7429 16.4069 1.76059 15.5375 1.78585 14.7688L2.75638 14.366C3.68227 13.9825 4.32901 13.167 4.4869 12.1845L4.71006 10.7927C4.83175 10.0398 4.63764 9.25639 4.17785 8.64371L3.58543 7.85408C5.07174 6.17341 7.94038 4.07496 9.31343 3.14928L10.6663 2.98442C23.7564 1.39139 25.4385 1.1873 36.3858 2.65555C41.0427 3.28074 43.3652 4.91634 45.6107 6.49811C47.7105 7.9772 49.8819 9.5068 53.7219 9.91914C55.3648 10.0953 56.7505 10.4972 57.8579 11.1028H56.0402C55.4941 11.1028 55.012 11.4074 54.7821 11.8986C54.5517 12.3894 54.628 12.9516 54.9804 13.3648L56.3042 14.919C56.5682 15.2295 56.9547 15.4077 57.3648 15.4077H60.8953C60.9042 15.4766 60.9181 15.5425 60.9252 15.6122C60.9412 15.7738 60.9766 15.9065 61.0246 16.0158L62.2461 19.2303C62.2751 19.7908 62.0507 20.3621 61.6073 20.8496ZM50.6869 26.8595C48.0684 26.8595 45.9374 24.7477 45.9374 22.1517C45.9374 19.5558 48.0684 17.4444 50.6869 17.4444C53.3059 17.4444 55.4368 19.5558 55.4368 22.1517C55.4368 24.7477 53.3059 26.8595 50.6869 26.8595ZM12.2419 26.8595C9.6229 26.8595 7.4928 24.7477 7.4928 22.1517C7.4928 19.5558 9.6229 17.4444 12.2419 17.4444C14.8608 17.4444 16.9913 19.5558 16.9913 22.1517C16.9913 24.7477 14.8608 26.8595 12.2419 26.8595ZM3.0469 10.5297L2.82332 11.922C2.75806 12.3293 2.49069 12.667 2.10669 12.8256L1.87932 12.9199C1.98964 11.498 2.19469 10.4688 2.62501 9.37074L2.82669 9.63993C3.01701 9.89327 3.09743 10.2175 3.0469 10.5297ZM59.8368 12.7722C60.0646 13.0731 60.2587 13.3953 60.4183 13.7383H57.5029L56.6793 12.7722H59.8368ZM63.9134 18.9598L63.9021 18.8526L62.5985 15.4211C62.0149 9.73761 56.3257 8.51936 53.9033 8.25935C50.5 7.89416 48.6865 6.61623 46.5863 5.13755C44.2865 3.51781 41.6802 1.68146 36.612 1.0016C25.4482 -0.496281 23.4524 -0.253382 10.4608 1.32796L8.70797 1.54081L8.54166 1.65141C7.90502 2.07377 2.29323 5.84997 1.20776 8.39123C0.168602 10.8236 0.130708 12.7463 0.0384971 17.3923C0.0275497 17.9611 0.0157603 18.5725 0.000602355 19.2328C-0.0267661 20.4631 0.881445 21.524 2.12229 21.7227L5.83597 22.6922C6.11429 25.9559 8.87892 28.5289 12.2419 28.5289C15.097 28.5289 17.521 26.6746 18.3593 24.1179H44.5694C45.4082 26.6746 47.8318 28.5289 50.6869 28.5289C53.7438 28.5289 56.3046 26.4033 56.956 23.5657H59.3042C60.6196 23.5657 61.9484 22.9681 62.8583 21.9673C63.6511 21.0954 64.0254 20.027 63.9134 18.9598Z" fill="#47505A"/>
<path fill-rule="evenodd" clip-rule="evenodd" d="M15.9994 8.32082L10.3266 7.96607L8.69671 6.99489L10.1245 5.7107L16.3784 5.00579L15.9994 8.32082ZM17.2386 3.22829L9.66387 4.08261C9.48871 4.10264 9.32408 4.17609 9.19355 4.29421L6.72618 6.5141C6.52871 6.69148 6.42766 6.95107 6.45376 7.21358C6.47987 7.47651 6.62976 7.71148 6.85797 7.84712L9.63523 9.50192C9.7506 9.57079 9.88155 9.61127 10.0159 9.61962L16.6929 10.037C16.711 10.0382 16.7287 10.0386 16.7468 10.0386C17.1721 10.0386 17.5346 9.72187 17.583 9.29784L18.1708 4.15147C18.1999 3.89897 18.111 3.64689 17.9296 3.46701C17.7481 3.28714 17.4959 3.19949 17.2386 3.22829Z" fill="#47505A"/>
<path fill-rule="evenodd" clip-rule="evenodd" d="M30.1236 8.64444L20.5025 8.29011L20.9076 4.93794L30.4667 4.93001L30.1236 8.64444ZM30.8895 10.3426C31.3232 10.3426 31.6878 10.0154 31.7278 9.58432L32.2284 4.17043C32.2503 3.93671 32.1716 3.70466 32.0116 3.53146C31.852 3.35826 31.6263 3.25977 31.3901 3.25977H31.3893L20.1594 3.26936C19.7333 3.26978 19.375 3.58572 19.3244 4.00516L18.7219 8.99168C18.6937 9.22331 18.7644 9.45577 18.9177 9.63315C19.0705 9.81052 19.2912 9.91611 19.5265 9.92488L30.8579 10.3422C30.8688 10.3426 30.879 10.3426 30.8895 10.3426Z" fill="#47505A"/>
<path fill-rule="evenodd" clip-rule="evenodd" d="M34.5334 8.77328L34.8163 5.2909C36.0526 5.39315 37.4054 5.6035 38.2669 5.8368C41.7713 6.78502 43.3389 8.08924 44.0307 8.97486L34.5334 8.77328ZM38.7107 4.22582C37.5313 3.90696 35.6269 3.63735 34.0795 3.57141C33.6134 3.55847 33.2403 3.89152 33.2041 4.3385L32.7831 9.52201C32.7641 9.75114 32.8416 9.97776 32.9974 10.1485C33.1528 10.3187 33.3721 10.4181 33.6041 10.4235L45.3772 10.6739H45.3953C45.6323 10.6739 45.8593 10.5742 46.0193 10.3993C46.1831 10.2207 46.2606 9.97985 46.2311 9.73904C46.1869 9.37135 45.5957 6.08971 38.7107 4.22582Z" fill="#47505A"/>
<path fill-rule="evenodd" clip-rule="evenodd" d="M42.4804 19.8481H20.597C20.1321 19.8481 19.7549 20.2221 19.7549 20.6828C19.7549 21.1436 20.1321 21.5176 20.597 21.5176H42.4804C42.9452 21.5176 43.3225 21.1436 43.3225 20.6828C43.3225 20.2221 42.9452 19.8481 42.4804 19.8481Z" fill="#47505A"/>
</svg>
