<svg width="64" height="32" viewBox="0 0 64 32" fill="none" xmlns="http://www.w3.org/2000/svg">
<path fill-rule="evenodd" clip-rule="evenodd" d="M46.3874 13.8149C45.9067 13.8149 45.5166 14.205 45.5166 14.6857V15.8738C45.5166 16.3549 45.9067 16.7446 46.3874 16.7446C46.868 16.7446 47.2581 16.3549 47.2581 15.8738V14.6857C47.2581 14.205 46.868 13.8149 46.3874 13.8149Z" fill="#47505A"/>
<path fill-rule="evenodd" clip-rule="evenodd" d="M30.0496 18.5274V13.643C30.0496 13.1623 29.6595 12.7722 29.1789 12.7722C28.6982 12.7722 28.3081 13.1623 28.3081 13.643V18.5274C28.3081 19.0081 28.6982 19.3982 29.1789 19.3982C29.6595 19.3982 30.0496 19.0081 30.0496 18.5274Z" fill="#47505A"/>
<path fill-rule="evenodd" clip-rule="evenodd" d="M17.2916 12.874C16.811 12.874 16.4209 13.2641 16.4209 13.7448V16.3797C16.4209 16.8603 16.811 17.2504 17.2916 17.2504C17.7723 17.2504 18.1624 16.8603 18.1624 16.3797V13.7448C18.1624 13.2641 17.7723 12.874 17.2916 12.874Z" fill="#47505A"/>
<mask id="mask0" mask-type="alpha" maskUnits="userSpaceOnUse" x="0" y="0" width="64" height="31">
<path fill-rule="evenodd" clip-rule="evenodd" d="M0 0.435547H63.9347V30.5253H0V0.435547Z" fill="white"/>
</mask>
<g mask="url(#mask0)">
<path fill-rule="evenodd" clip-rule="evenodd" d="M58.5781 23.6061H54.6958C54.5543 20.0622 51.6352 17.2205 48.0568 17.2205C44.3884 17.2205 41.4043 20.205 41.4043 23.8726C41.4043 23.9775 41.4148 24.0789 41.42 24.1821H19.2947C19.2991 24.0789 19.3104 23.9775 19.3104 23.8726C19.3104 20.205 16.3259 17.2205 12.6579 17.2205C9.40474 17.2205 6.69454 19.5693 6.12159 22.6587L2.59288 21.7292L2.49187 21.7092C2.06172 21.6487 1.73258 21.2786 1.74129 20.8663C1.7796 19.1483 1.87843 17.5631 2.01688 16.0989L2.84931 15.7506C3.80627 15.351 4.47544 14.5007 4.63914 13.4754L4.87076 12.0225C4.99527 11.2367 4.79456 10.4199 4.31957 9.78123L3.30994 8.42374C3.57987 7.36752 3.8572 6.45585 4.11973 5.69394C4.52594 4.51364 5.52512 3.63462 6.72763 3.39952C16.7369 1.44425 22.4037 2.06423 33.2689 3.53449C40.0485 4.45269 43.7671 7.09498 46.7555 9.21873C48.9676 10.79 50.8776 12.1479 53.3723 12.4179C55.8239 12.6834 57.5885 13.1341 58.8667 13.6526H57.9459C57.3812 13.6526 56.8823 13.9704 56.645 14.4828C56.4073 14.9953 56.4852 15.5813 56.8496 16.0127L58.2189 17.6336C58.4919 17.9576 58.892 18.1435 59.3156 18.1435H62.1499V20.0343C62.1499 22.0035 60.5473 23.6061 58.5781 23.6061ZM48.0568 28.784C45.3488 28.784 43.1458 26.5806 43.1458 23.8726C43.1458 21.165 45.3488 18.962 48.0568 18.962C50.7649 18.962 52.9678 21.165 52.9678 23.8726C52.9678 26.5806 50.7649 28.784 48.0568 28.784ZM12.6579 28.784C9.95027 28.784 7.74684 26.5806 7.74684 23.8726C7.74684 21.165 9.95027 18.962 12.6579 18.962C15.3659 18.962 17.5689 21.165 17.5689 23.8726C17.5689 26.5806 15.3659 28.784 12.6579 28.784ZM2.92246 10.8205C3.11881 11.0852 3.2024 11.4239 3.15016 11.7491L2.91941 13.2015C2.85541 13.6016 2.60159 13.9317 2.24022 14.108C2.40305 12.8528 2.59375 11.7004 2.80229 10.6585L2.92246 10.8205ZM61.5051 15.3941C61.563 15.4637 61.617 15.5325 61.6662 15.6C61.8756 15.89 61.9979 16.1603 62.0763 16.402H59.458L58.6064 15.3941H61.5051ZM63.9349 17.2727C63.9349 17.2592 63.9314 17.247 63.931 17.2335C63.9567 16.6654 63.8592 15.7075 63.1373 14.6648C61.6779 12.5554 58.4557 11.2167 53.56 10.6864C51.5163 10.4648 49.8606 9.28839 47.7643 7.79897C44.62 5.56507 40.7073 2.78477 33.5027 1.80953C22.7437 0.352336 16.6515 -0.313787 6.39369 1.69024C4.58254 2.0442 3.0805 3.36121 2.47272 5.12795C1.4374 8.13683 0.16828 13.303 0.000660934 20.8271C-0.0285091 22.1106 0.911028 23.2178 2.19408 23.425L6.03364 24.4364C6.32186 27.8414 9.18009 30.5255 12.6579 30.5255C15.6106 30.5255 18.1161 28.5907 18.9834 25.9236H41.7313C42.5985 28.5907 45.1046 30.5255 48.0568 30.5255C51.2176 30.5255 53.8656 28.3077 54.5391 25.3476H58.5781C61.5077 25.3476 63.8914 22.9639 63.8914 20.0343V17.6241C63.8997 17.5784 63.9075 17.52 63.9149 17.4556C63.9275 17.3964 63.9349 17.3358 63.9349 17.2727Z" fill="#47505A"/>
</g>
<path fill-rule="evenodd" clip-rule="evenodd" d="M10.6796 9.06739L9.39216 8.23713L9.92636 5.8491L15.322 5.54042C16.4322 5.47599 17.5589 5.47076 18.6704 5.52562L24.8253 5.82385L24.6572 8.0756L22.0237 9.41264L10.6796 9.06739ZM22.2196 11.1607C22.3563 11.1607 22.4917 11.128 22.6136 11.0662L25.8837 9.40567C26.1554 9.26809 26.3352 8.99816 26.3578 8.69427L26.6282 5.06195C26.6456 4.82771 26.5677 4.5961 26.4122 4.4202C26.2564 4.24475 26.0365 4.13895 25.8018 4.1272L18.7549 3.78586C17.5824 3.72883 16.3934 3.73449 15.2222 3.80154L9.17011 4.1481C8.78176 4.17073 8.45523 4.44807 8.3699 4.82771L7.5601 8.44959C7.48043 8.80573 7.6315 9.17362 7.938 9.37128L9.93942 10.6622C10.0722 10.7479 10.2263 10.7963 10.3848 10.8006L22.193 11.1602C22.2022 11.1607 22.2104 11.1607 22.2196 11.1607Z" fill="#47505A"/>
<path fill-rule="evenodd" clip-rule="evenodd" d="M30.368 10.0122C30.1333 9.99739 29.9191 9.89116 29.765 9.71309C29.6117 9.53502 29.5373 9.30819 29.556 9.07353L29.7828 6.25448C32.5718 6.35592 34.3982 6.6215 35.2063 6.85051C39.6745 8.11919 42.3338 9.72615 43.7997 10.8799L30.368 10.0122ZM46.0684 12.7699C46.3762 12.7699 46.6627 12.607 46.8195 12.3393C46.9862 12.055 46.9779 11.7014 46.7986 11.4254C46.6984 11.2709 44.2412 7.60545 35.6817 5.17562C34.4013 4.81252 31.904 4.55565 29.0013 4.48947C28.5411 4.46466 28.1502 4.83037 28.1136 5.29013L27.8202 8.93334C27.7636 9.6369 27.9865 10.3183 28.448 10.852C28.9095 11.3858 29.5516 11.7049 30.2556 11.7502L46.0123 12.7681C46.031 12.7694 46.0497 12.7699 46.0684 12.7699Z" fill="#47505A"/>
<path fill-rule="evenodd" clip-rule="evenodd" d="M39.571 21.4697H21.297C20.8164 21.4697 20.4263 21.8598 20.4263 22.3405C20.4263 22.8211 20.8164 23.2112 21.297 23.2112H39.571C40.0516 23.2112 40.4417 22.8211 40.4417 22.3405C40.4417 21.8598 40.0516 21.4697 39.571 21.4697Z" fill="#47505A"/>
</svg>
