<svg width="64" height="26" viewBox="0 0 64 26" fill="none" xmlns="http://www.w3.org/2000/svg">
<path fill-rule="evenodd" clip-rule="evenodd" d="M38.4652 8.42725V4.41599C39.789 4.63813 42.669 5.45178 45.7498 8.42725H38.4652ZM48.221 9.50778C48.3448 9.23402 48.2976 8.91361 48.1003 8.68802C43.0222 2.87128 37.9231 2.80322 37.7033 2.80322H37.7029C37.2824 2.80322 36.9414 3.14581 36.9414 3.56793V9.19196C36.9414 9.61408 37.2827 9.95666 37.7033 9.95666H47.5273C47.8264 9.95666 48.0976 9.78116 48.221 9.50778Z" fill="#47505A"/>
<path fill-rule="evenodd" clip-rule="evenodd" d="M48.3044 10.731C47.8838 10.731 47.5425 11.0735 47.5425 11.4957V12.8121C47.5425 13.2346 47.8838 13.5768 48.3044 13.5768C48.725 13.5768 49.0663 13.2346 49.0663 12.8121V11.4957C49.0663 11.0735 48.725 10.731 48.3044 10.731Z" fill="#47505A"/>
<path fill-rule="evenodd" clip-rule="evenodd" d="M35.4585 11.5535V15.7269C35.4585 16.1494 35.7998 16.4916 36.2204 16.4916C36.641 16.4916 36.9823 16.1494 36.9823 15.7269V11.5535C36.9823 11.1314 36.641 10.7888 36.2204 10.7888C35.7998 10.7888 35.4585 11.1314 35.4585 11.5535Z" fill="#47505A"/>
<path fill-rule="evenodd" clip-rule="evenodd" d="M16.1369 11.2627C15.7163 11.2627 15.375 11.6053 15.375 12.0274V14.3418C15.375 14.7639 15.7163 15.1065 16.1369 15.1065C16.5575 15.1065 16.8988 14.7639 16.8988 14.3418V12.0274C16.8988 11.6053 16.5575 11.2627 16.1369 11.2627Z" fill="#47505A"/>
<mask id="mask0" mask-type="alpha" maskUnits="userSpaceOnUse" x="0" y="0" width="64" height="26">
<path fill-rule="evenodd" clip-rule="evenodd" d="M0.0581055 0.0090332H63.6207V26.0001H0.0581055V0.0090332Z" fill="white"/>
</mask>
<g mask="url(#mask0)">
<path fill-rule="evenodd" clip-rule="evenodd" d="M61.6672 19.9231H55.5362C55.4124 16.8104 52.8581 14.3152 49.7271 14.3152C46.5172 14.3152 43.9061 16.9362 43.9061 20.1575C43.9061 20.2493 43.9156 20.3384 43.9198 20.429H16.9412C16.9453 20.3384 16.9549 20.2493 16.9549 20.1575C16.9549 16.9362 14.3434 14.3152 11.1339 14.3152C8.28706 14.3152 5.91563 16.3779 5.4143 19.0915L2.32668 18.2748L2.2383 18.2572C1.8642 18.2044 1.58191 17.8787 1.58191 17.4998V16.4644H3.04287C3.46382 16.4644 3.80477 16.1222 3.80477 15.6996V11.9958C3.80477 11.5733 3.46382 11.2311 3.04287 11.2311H1.58191V9.04939C1.58191 5.38147 2.18077 3.43071 2.68249 2.44042C2.96439 1.88409 3.52782 1.53844 4.1522 1.53844H36.8897C41.0901 1.53844 44.5411 4.13806 47.5861 6.43142C49.9221 8.191 52.1286 9.85309 54.3781 10.0978C57.4173 10.4278 59.2558 11.0839 60.3724 11.7744H59.2432C58.6086 11.7744 58.0291 12.0684 57.6531 12.5812C57.2771 13.0939 57.1693 13.7366 57.3579 14.345C57.6162 15.1777 58.3739 15.7371 59.2432 15.7371H62.0581V19.5308C62.0581 19.7472 61.8829 19.9231 61.6672 19.9231ZM49.7273 24.4708C47.3578 24.4708 45.4302 22.5357 45.4302 20.1575C45.4302 17.7796 47.3578 15.8446 49.7273 15.8446C52.0968 15.8446 54.0248 17.7796 54.0248 20.1575C54.0248 22.5357 52.0968 24.4708 49.7273 24.4708ZM11.1339 24.4708C8.76441 24.4708 6.83641 22.5357 6.83641 20.1575C6.83641 17.7796 8.76441 15.8446 11.1339 15.8446C13.5031 15.8446 15.4311 17.7796 15.4311 20.1575C15.4311 22.5357 13.5031 24.4708 11.1339 24.4708ZM1.58191 14.9349H2.28096V12.7605H1.58191V14.9349ZM62.0968 14.2077H59.2434C59.0449 14.2077 58.872 14.08 58.8129 13.8904C58.7543 13.7003 58.8301 13.5566 58.8804 13.4877C58.9307 13.4189 59.0449 13.3038 59.2434 13.3038H61.8754C62.0606 13.6908 62.0987 14.0142 62.0968 14.2077ZM62.9221 12.0707C61.6452 10.2182 58.8257 9.04289 54.5423 8.57718C52.7084 8.37797 50.6646 6.83786 48.5004 5.20827C45.2653 2.77115 41.5987 0.0090332 36.8897 0.0090332H4.1522C2.95144 0.0090332 1.86763 0.67471 1.32477 1.74683C0.484391 3.40433 0.0581055 5.86133 0.0581055 9.04939V11.9958V15.6997V17.4998C0.0581055 18.6208 0.880201 19.5851 1.97772 19.7641L5.33772 20.6527C5.58953 23.643 8.09049 26.0002 11.1339 26.0002C13.7172 26.0002 15.9103 24.3007 16.6688 21.9584H44.1922C44.9507 24.3007 47.1434 26.0002 49.7271 26.0002C52.4932 26.0002 54.8101 24.0522 55.3994 21.4525H61.6672C62.7229 21.4525 63.5819 20.5903 63.5819 19.5308V14.6696C63.6444 14.3125 63.7354 13.2503 62.9221 12.0707Z" fill="#47505A"/>
</g>
<path fill-rule="evenodd" clip-rule="evenodd" d="M5.25623 7.82337V5.0949C5.25623 4.67355 5.59795 4.33019 6.01814 4.33019H34.316V8.58807H6.01814C5.59795 8.58807 5.25623 8.2451 5.25623 7.82337ZM35.8398 8.58807V4.33019C35.8398 3.48672 35.1564 2.80078 34.316 2.80078H6.01814C4.75756 2.80078 3.73242 3.83008 3.73242 5.0949V7.82337C3.73242 9.08857 4.75756 10.1175 6.01814 10.1175H34.316C35.1564 10.1175 35.8398 9.43154 35.8398 8.58807Z" fill="#47505A"/>
<path fill-rule="evenodd" clip-rule="evenodd" d="M42.3848 17.8813H18.6306C18.2096 17.8813 17.8687 18.2239 17.8687 18.6461C17.8687 19.0682 18.2096 19.4108 18.6306 19.4108H42.3848C42.8054 19.4108 43.1467 19.0682 43.1467 18.6461C43.1467 18.2239 42.8054 17.8813 42.3848 17.8813Z" fill="#47505A"/>
</svg>
