<svg width="64" height="23" viewBox="0 0 64 23" fill="none" xmlns="http://www.w3.org/2000/svg">
<path fill-rule="evenodd" clip-rule="evenodd" d="M41.0303 6.73765H31.3192L30.6215 3.80638C35.2 4.12909 38.8652 5.62091 41.0303 6.73765ZM30.08 7.61023C30.156 7.92834 30.4391 8.15303 30.7643 8.15303H43.6065C43.9107 8.15303 44.1804 7.95629 44.275 7.66578C44.3696 7.37457 44.2676 7.05575 44.0225 6.87458C43.788 6.70155 38.1806 2.63091 29.7421 2.34323C29.5216 2.33792 29.3127 2.43205 29.1738 2.60295C29.0349 2.77386 28.9832 3.00032 29.0346 3.21546L30.08 7.61023Z" fill="#47505A"/>
<path fill-rule="evenodd" clip-rule="evenodd" d="M20.1773 5.59602L21.1858 4.14596C21.8849 4.07979 23.7627 3.92127 26.873 3.79778L27.5752 6.73753H19.6811L20.1773 5.59602ZM28.4677 8.15292C28.6829 8.15292 28.8868 8.05349 29.0201 7.88329C29.1534 7.71309 29.2019 7.49052 29.1516 7.27962L28.1058 2.90361C28.0278 2.57595 27.7296 2.34984 27.3965 2.36152C22.9274 2.52393 20.8038 2.76101 20.7159 2.77127C20.5155 2.79392 20.334 2.90219 20.2183 3.0685L18.9844 4.84198C18.9577 4.88055 18.9352 4.92159 18.9162 4.96441L17.9615 7.16179C17.8669 7.38047 17.8876 7.63276 18.0174 7.83269C18.1478 8.03261 18.3687 8.15292 18.606 8.15292H28.4677Z" fill="#47505A"/>
<path fill-rule="evenodd" clip-rule="evenodd" d="M43.376 10.0851V13.1204C43.376 13.5111 43.6911 13.8281 44.0793 13.8281C44.4675 13.8281 44.7826 13.5111 44.7826 13.1204V10.0851C44.7826 9.69449 44.4675 9.37744 44.0793 9.37744C43.6911 9.37744 43.376 9.69449 43.376 10.0851Z" fill="#47505A"/>
<path fill-rule="evenodd" clip-rule="evenodd" d="M29.4299 9.12427C29.0416 9.12427 28.7266 9.44131 28.7266 9.83196V12.8673C28.7266 13.2579 29.0416 13.5749 29.4299 13.5749C29.8181 13.5749 30.1332 13.2579 30.1332 12.8673V9.83196C30.1332 9.44131 29.8181 9.12427 29.4299 9.12427Z" fill="#47505A"/>
<path fill-rule="evenodd" clip-rule="evenodd" d="M16.8552 9.71582C16.4669 9.71582 16.1519 10.0329 16.1519 10.4235V11.8573C16.1519 12.2483 16.4669 12.565 16.8552 12.565C17.2434 12.565 17.5584 12.2483 17.5584 11.8573V10.4235C17.5584 10.0329 17.2434 9.71582 16.8552 9.71582Z" fill="#47505A"/>
<path fill-rule="evenodd" clip-rule="evenodd" d="M62.0477 17.0226H56.7396C56.6253 14.1423 54.2675 11.8328 51.3776 11.8328C48.4147 11.8328 46.0045 14.2584 46.0045 17.2395C46.0045 17.3245 46.0129 17.4069 46.0171 17.4911H17.5973C17.6008 17.4069 17.6099 17.3245 17.6099 17.2395C17.6099 14.2584 15.1994 11.8328 12.2367 11.8328C9.5438 11.8328 7.314 13.8384 6.92859 16.4413L2.36525 15.8369C1.88138 15.7728 1.50899 15.3868 1.45976 14.8981C1.31312 13.4428 1.47382 11.9782 1.92112 10.5964L4.50257 10.8144C4.55145 10.8186 4.60068 10.8204 4.64885 10.8204C5.33035 10.8204 5.96156 10.4202 6.25026 9.79072C6.48762 9.27446 6.46723 8.69203 6.1954 8.19311C5.92323 7.69418 5.44534 7.36475 4.88481 7.28868L3.46696 7.09654L3.49721 7.03214C3.72507 6.54702 4.21668 6.23315 4.75013 6.23315H8.82046L9.14362 6.22891L9.35356 5.98723C9.39083 5.94406 13.2164 1.71171 26.4405 1.42651C33.381 1.27895 37.9872 2.73291 40.632 3.98057C43.4863 5.32731 44.7255 6.72642 44.7364 6.7388L44.9172 6.94934L53.9123 7.92985C56.6605 8.2292 58.521 8.82791 59.7838 9.48288C59.2085 9.49066 58.6842 9.76065 58.3424 10.2277C57.9953 10.7026 57.8958 11.2974 58.0699 11.8604C58.3083 12.631 59.0074 13.1487 59.8098 13.1487H62.4085V16.6596C62.4085 16.8599 62.2467 17.0226 62.0477 17.0226ZM51.3775 21.2313C49.1903 21.2313 47.4109 19.4405 47.4109 17.2395C47.4109 15.039 49.1903 13.2482 51.3775 13.2482C53.5648 13.2482 55.3441 15.039 55.3441 17.2395C55.3441 19.4405 53.5648 21.2313 51.3775 21.2313ZM12.237 21.2313C10.0497 21.2313 8.27004 19.4405 8.27004 17.2395C8.27004 15.039 10.0497 13.2482 12.237 13.2482C14.4239 13.2482 16.2036 15.039 16.2036 17.2395C16.2036 19.4405 14.4239 21.2313 12.237 21.2313ZM2.8379 8.43938L4.69777 8.69132C4.85319 8.71255 4.9302 8.81517 4.96256 8.87426C4.99491 8.93371 5.03957 9.05402 4.97381 9.19697C4.91157 9.3332 4.76985 9.41706 4.6204 9.40397L2.47078 9.22245L2.8379 8.43938ZM61.6866 10.8968C61.9753 11.2213 62.1519 11.5125 62.2581 11.7333H59.8102C59.627 11.7333 59.4677 11.6155 59.4132 11.4396C59.3591 11.2638 59.4291 11.1307 59.4758 11.067C59.5219 11.0034 59.6274 10.8968 59.8102 10.8968H61.6866ZM63.8118 12.0171C63.8019 11.9248 63.6542 10.7723 62.3194 9.52781V9.48146H62.268C60.956 8.28263 58.536 7.0102 54.0644 6.5226L45.6013 5.60012C44.52 4.50674 39.0817 -0.26417 26.4104 0.0114763C14.1457 0.276153 9.57036 3.82452 8.52596 4.81777H4.75031C3.67497 4.81777 2.68403 5.45009 2.22548 6.42848L1.1308 8.76351C0.213697 10.7189 -0.156589 12.8894 0.060378 15.0407C0.17607 16.1858 1.04851 17.0902 2.18222 17.2402L6.90275 17.8655C7.21255 20.5526 9.4842 22.6467 12.2369 22.6467C14.6214 22.6467 16.6459 21.0742 17.346 18.9065H46.2687C46.9689 21.0742 48.9933 22.6467 51.3778 22.6467C53.9308 22.6467 56.0695 20.8438 56.6135 18.438H62.0479C63.0223 18.438 63.8153 17.6401 63.8153 16.6596V12.0904L63.8118 12.0171Z" fill="#47505A"/>
<path fill-rule="evenodd" clip-rule="evenodd" d="M15.6896 6.73755H13.5768C14.3881 6.13778 15.4673 5.44282 16.6432 4.96725L15.6896 6.73755ZM18.638 3.38804C18.4787 3.16759 18.2076 3.05896 17.9404 3.1085C14.4281 3.7663 11.2618 6.80655 11.1286 6.93605C10.9222 7.13598 10.8575 7.44241 10.9647 7.71027C11.072 7.97778 11.3304 8.15293 11.617 8.15293H16.1079C16.366 8.15293 16.6034 8.01068 16.7265 7.78245L18.6876 4.14173C18.817 3.90182 18.7973 3.60849 18.638 3.38804Z" fill="#47505A"/>
<path fill-rule="evenodd" clip-rule="evenodd" d="M44.1867 15.2891H19.131C18.7428 15.2891 18.4277 15.6061 18.4277 15.9968C18.4277 16.3874 18.7428 16.7044 19.131 16.7044H44.1867C44.5749 16.7044 44.89 16.3874 44.89 15.9968C44.89 15.6061 44.5749 15.2891 44.1867 15.2891Z" fill="#47505A"/>
</svg>
