<svg width="64" height="26" viewBox="0 0 64 26" fill="none" xmlns="http://www.w3.org/2000/svg">
<path fill-rule="evenodd" clip-rule="evenodd" d="M33.5891 7.65315V4.05138H37.2524C39.8366 4.05138 43.0197 6.19447 44.8868 7.65315H33.5891ZM47.6997 8.69927C47.8155 8.40753 47.7411 8.07488 47.5116 7.86038C47.279 7.64206 41.7566 2.52197 37.2524 2.52197H32.8226C32.3995 2.52197 32.0562 2.86456 32.0562 3.28668V8.41786C32.0562 8.83997 32.3995 9.18256 32.8226 9.18256H46.9873C47.3016 9.18256 47.5844 8.991 47.6997 8.69927Z" fill="#47505A"/>
<path fill-rule="evenodd" clip-rule="evenodd" d="M47.2772 10.0635C46.8541 10.0635 46.5107 10.4061 46.5107 10.8282V12.8237C46.5107 13.2458 46.8541 13.5884 47.2772 13.5884C47.7003 13.5884 48.0437 13.2458 48.0437 12.8237V10.8282C48.0437 10.4061 47.7003 10.0635 47.2772 10.0635Z" fill="#47505A"/>
<path fill-rule="evenodd" clip-rule="evenodd" d="M30.9691 15.6956C31.3922 15.6956 31.7356 15.353 31.7356 14.9309V11.0408C31.7356 10.6183 31.3922 10.2761 30.9691 10.2761C30.546 10.2761 30.2026 10.6183 30.2026 11.0408V14.9309C30.2026 15.353 30.546 15.6956 30.9691 15.6956Z" fill="#47505A"/>
<path fill-rule="evenodd" clip-rule="evenodd" d="M61.9781 19.9141H55.8103C55.6857 16.8017 53.1162 14.3061 49.9664 14.3061C46.7372 14.3061 44.1106 16.9271 44.1106 20.1485C44.1106 20.2402 44.1198 20.3293 44.1244 20.4203H16.9841C16.988 20.3293 16.9979 20.2402 16.9979 20.1485C16.9979 16.9271 14.3709 14.3061 11.1421 14.3061C8.27861 14.3061 5.89298 16.3689 5.38865 19.0825L2.28216 18.2658L2.19325 18.2482C1.81691 18.1954 1.53293 17.87 1.53293 17.4907V16.4553H3.00263C3.42611 16.4553 3.7691 16.1131 3.7691 15.6906V11.9864C3.7691 11.5643 3.42611 11.2217 3.00263 11.2217H1.53293V9.04035H30.5334V2.29412C30.5334 1.87238 30.8775 1.52941 31.2998 1.52941H37.0525C41.2781 1.52941 44.7498 4.12865 47.8126 6.422C50.1626 8.18197 52.3823 9.84406 54.6449 10.0884C57.7023 10.4191 59.5522 11.0749 60.6754 11.765H59.5395C58.9011 11.765 58.3178 12.0594 57.9399 12.5721C57.5617 13.0853 57.4532 13.728 57.6433 14.3356C57.9031 15.1683 58.665 15.7281 59.5395 15.7281H62.3716V19.5214C62.3716 19.7382 62.195 19.9141 61.9781 19.9141ZM49.9666 24.4614C47.5829 24.4614 45.6437 22.5267 45.6437 20.1485C45.6437 17.7702 47.5829 15.8355 49.9666 15.8355C52.3503 15.8355 54.2899 17.7702 54.2899 20.1485C54.2899 22.5267 52.3503 24.4614 49.9666 24.4614ZM11.1422 24.4614C8.75845 24.4614 6.81929 22.5267 6.81929 20.1485C6.81929 17.7702 8.75845 15.8355 11.1422 15.8355C13.5255 15.8355 15.465 17.7702 15.465 20.1485C15.465 22.5267 13.5255 24.4614 11.1422 24.4614ZM1.53293 14.9259H2.23617V12.7511H1.53293V14.9259ZM62.4104 14.1987H59.5396C59.34 14.1987 59.1664 14.071 59.107 13.8809C59.048 13.6909 59.1238 13.5475 59.1748 13.4787C59.225 13.4099 59.34 13.2944 59.5396 13.2944H62.1878C62.374 13.6817 62.4124 14.0052 62.4104 14.1987ZM63.2408 12.0617C61.9562 10.2092 59.1199 9.03347 54.8104 8.56815C52.9656 8.36856 50.9095 6.82882 48.7324 5.19885C45.4779 2.76212 41.7893 0 37.0525 0H31.2998C30.0321 0 29.0004 1.02891 29.0004 2.29412V7.51094H1.53293C0.687521 7.51094 0 8.19688 0 9.04035V11.9864V15.6906V17.4907C0 18.6114 0.827018 19.5761 1.93111 19.755L5.31162 20.6436C5.56493 23.634 8.08086 25.9908 11.1421 25.9908C13.7408 25.9908 15.9471 24.292 16.7101 21.9497H44.3984C45.1618 24.292 47.3677 25.9908 49.9664 25.9908C52.749 25.9908 55.0795 24.0431 55.6723 21.4435H61.9781C63.0404 21.4435 63.9046 20.5813 63.9046 19.5214V14.6602C63.9674 14.3034 64.059 13.2413 63.2408 12.0617Z" fill="#47505A"/>
<path fill-rule="evenodd" clip-rule="evenodd" d="M42.4967 17.7256H18.87C18.4465 17.7256 18.1035 18.0682 18.1035 18.4903C18.1035 18.9124 18.4465 19.255 18.87 19.255H42.4967C42.9198 19.255 43.2632 18.9124 43.2632 18.4903C43.2632 18.0682 42.9198 17.7256 42.4967 17.7256Z" fill="#47505A"/>
</svg>
